<svg id="Layer_1" data-name="Layer 1" xmlns="http://www.w3.org/2000/svg" viewBox="0 0 1000 1000"><defs><style>.cls-1{fill:#7359a6;}</style></defs><path class="cls-1" d="M642.63,405.15c-10.14-5.79-23.17-5.79-34.75,0l-81.09,47.79-55,30.41-79.64,47.78c-10.13,5.79-23.17,5.79-34.75,0L295.1,493.48a35.29,35.29,0,0,1-17.37-30.4V390.67c0-11.58,5.79-23.16,17.37-30.41l62.27-36.2c10.14-5.79,23.17-5.79,34.75,0l62.27,37.65a35.32,35.32,0,0,1,17.37,30.41v47.79l55-31.86V358.82c0-11.59-5.79-23.17-17.38-30.41L393.57,260.35c-10.14-5.79-23.17-5.79-34.75,0L240.08,329.86c-11.59,5.79-17.38,17.37-17.38,29V494.93c0,11.59,5.79,23.17,17.38,30.41L357.37,593.4c10.14,5.79,23.17,5.79,34.75,0l79.64-46.34,55-31.86,79.64-46.33c10.14-5.79,23.17-5.79,34.75,0l62.27,36.2a35.29,35.29,0,0,1,17.37,30.41v72.4c0,11.58-5.79,23.17-17.37,30.41l-60.82,36.2c-10.14,5.79-23.17,5.79-34.75,0l-62.27-36.2a35.32,35.32,0,0,1-17.37-30.41V561.54l-55,31.86v47.78c0,11.59,5.79,23.17,17.38,30.41l117.29,68.06c10.13,5.79,23.17,5.79,34.75,0l117.29-68.06a35.28,35.28,0,0,0,17.38-30.41V503.62c0-11.58-5.79-23.17-17.38-30.41Z"/></svg>