<svg width="51" height="115" viewBox="0 0 51 115" fill="none" xmlns="http://www.w3.org/2000/svg">
<path d="M17.6969 73.9806C17.0109 73.9806 16.4622 73.9806 15.7762 73.2947L5.62425 63.1427C5.34987 62.8683 5.21267 62.7311 5.21267 62.4567C5.07548 62.3195 4.93832 61.7708 5.07551 61.222C5.07551 60.9476 5.21267 60.8104 5.34986 60.6732C5.48705 60.5361 5.62427 60.3989 5.76146 60.2617C6.03583 59.9873 6.17301 59.7129 6.3102 59.5757C8.77961 57.2435 11.1118 54.9113 13.5812 52.7163C19.0688 47.3659 24.5564 42.0155 30.0439 36.6651C30.0439 36.3907 30.4555 34.7444 31.6902 34.3329C32.1018 34.1957 32.6505 34.1957 32.9249 34.1957C33.6109 34.1957 34.1596 34.1957 34.8456 34.8816L45.5464 45.0336C45.9579 45.5824 46.3695 46.2683 46.2323 46.9543C46.0951 47.6402 45.4092 48.0518 45.1348 48.189C43.9001 48.875 40.0588 52.7163 32.7877 60.3989C28.3977 64.6517 24.1448 68.9046 19.7547 73.0203C19.6175 73.1575 19.4804 73.5691 19.0688 73.8434C18.6572 73.9806 18.2457 73.9806 17.6969 73.9806Z" fill="#AF145B"/>
<path d="M45.4097 24.7299L24.5569 4.56302C21.4016 2.09361 17.5602 0.172974 13.1702 0.172974C8.78014 0.172974 4.39005 2.0936 1.2347 5.24896C-8.34067e-06 5.93491 0 6.48365 0 7.1696C0 7.85555 0 8.40435 0.685947 9.09029L29.0842 36.2538C29.7701 36.9397 30.3189 36.9397 30.3189 37.4885C36.6296 44.4852 37.3155 54.5 31.5536 61.4967L45.4097 48.1893C48.5651 45.7199 50.4857 41.1926 50.4857 36.8026C50.4857 32.4125 48.5651 27.8852 45.4097 24.7299Z" fill="url(#paint0_linear_7_11)"/>
<path d="M20.8533 70.2762C14.5426 63.2796 13.8567 53.2647 20.1674 46.2681L6.31125 59.5754C3.15589 62.7308 1.23523 67.1209 1.23523 71.5109C1.23523 75.901 3.15589 80.291 6.31125 83.4464L36.6301 114.314C37.3161 115 37.8648 115 38.5508 115C39.2367 115 39.7855 115 40.4714 114.314C43.6268 111.159 45.5474 106.769 45.5474 102.379C45.5474 97.9885 43.6268 93.5984 40.4714 90.4431L21.5393 71.5109C21.4021 70.825 20.8533 70.825 20.8533 70.2762Z" fill="url(#paint1_linear_7_11)"/>
<defs>
<linearGradient id="paint0_linear_7_11" x1="0" y1="30.8348" x2="50.4857" y2="30.8348" gradientUnits="userSpaceOnUse">
<stop stop-color="#CB0766"/>
<stop offset="1" stop-color="#E04391"/>
</linearGradient>
<linearGradient id="paint1_linear_7_11" x1="0.742444" y1="80.634" x2="45.3411" y2="80.634" gradientUnits="userSpaceOnUse">
<stop stop-color="#CB0766"/>
<stop offset="1" stop-color="#E04391"/>
</linearGradient>
</defs>
</svg>
