<svg width="38" height="37" viewBox="0 0 38 37" fill="none" xmlns="http://www.w3.org/2000/svg">
<rect x="0.760002" y="0.315674" width="36" height="36" rx="8" fill="white"/>
<g clip-path="url(#clip0_231_587)">
<path d="M17.6355 7.45349C16.9597 7.45349 16.3116 7.72196 15.8337 8.19984L8.32729 15.7064C8.04298 15.9907 7.90083 16.3633 7.90083 16.736C7.90084 17.1086 8.04299 17.4813 8.3273 17.7656L13.2465 22.6848V13.976C13.2465 13.3261 13.7692 12.7992 14.4191 12.7992C17.1649 12.7992 23.8485 12.7992 24.7602 12.7992L30.1058 7.45357L17.6355 7.45349Z" fill="#262233"/>
<path d="M13.2467 24.313H23.5837C24.2336 24.313 24.7605 23.7861 24.7605 23.1361V14.4274L29.6796 19.3466C29.9639 19.6309 30.1061 20.0035 30.1061 20.3762C30.1061 20.7489 29.9639 21.1215 29.6796 21.4058L22.1732 28.9123C21.6954 29.3902 21.0472 29.6587 20.3714 29.6587L7.9011 29.6586L13.2467 24.313Z" fill="#262233"/>
</g>
<defs>
<clipPath id="clip0_231_587">
<rect width="22.2052" height="22.2052" fill="white" transform="translate(7.90083 7.45349)"/>
</clipPath>
</defs>
</svg>
